<svg xmlns="http://www.w3.org/2000/svg" viewBox="0 0 64 64">
  <path fill="#2563eb" fill-rule="evenodd" d="M35.7 6.5h-7.4l-1.8 7.1a19.8 19.8 0 0 0-4.2 1.7l-6.3-3.7-5.2 5.2 3.7 6.3a19.8 19.8 0 0 0-1.7 4.2l-7.1 1.8v7.4l7.1 1.8c.4 1.5 1 2.9 1.7 4.2l-3.7 6.3 5.2 5.2 6.3-3.7c1.3.7 2.7 1.3 4.2 1.7l1.8 7.1h7.4l1.8-7.1c1.5-.4 2.9-1 4.2-1.7l6.3 3.7 5.2-5.2-3.7-6.3c.7-1.3 1.3-2.7 1.7-4.2l7.1-1.8v-7.4l-7.1-1.8c-.4-1.5-1-2.9-1.7-4.2l3.7-6.3-5.2-5.2-6.3 3.7a19.8 19.8 0 0 0-4.2-1.7l-1.8-7.1ZM32 41.5a9.5 9.5 0 1 0 0-19 9.5 9.5 0 0 0 0 19Z" clip-rule="evenodd"/>
</svg>
